<svg width="25" height="25" viewBox="0 0 25 25" fill="none" xmlns="http://www.w3.org/2000/svg">
<path d="M22.2708 6.00001C22.2353 5.86699 22.1737 5.74235 22.0897 5.63328C22.0056 5.52422 21.9008 5.43289 21.7812 5.36459L16.3646 2.23959C16.2463 2.17028 16.1155 2.125 15.9797 2.10635C15.8439 2.08769 15.7058 2.09601 15.5732 2.13085C15.4406 2.16569 15.3162 2.22635 15.2071 2.30936C15.098 2.39237 15.0064 2.4961 14.9375 2.61459L12.5 6.84376L10.0625 2.61459C9.99358 2.4961 9.90195 2.39237 9.79286 2.30936C9.68378 2.22635 9.55938 2.16569 9.4268 2.13085C9.29422 2.09601 9.15607 2.08769 9.02027 2.10635C8.88447 2.125 8.75368 2.17028 8.63542 2.23959L3.21875 5.36459C3.0992 5.43289 2.99438 5.52422 2.91034 5.63328C2.82631 5.74235 2.76473 5.86699 2.72917 6.00001C2.66023 6.26401 2.69763 6.54453 2.83333 6.78126L7 13.8958C6.53515 14.7474 6.27817 15.6969 6.25 16.6667C6.24752 17.6128 6.45988 18.5471 6.87106 19.3993C7.28224 20.2514 7.88152 20.999 8.6237 21.5858C9.36589 22.1726 10.2316 22.5832 11.1556 22.7867C12.0796 22.9903 13.0377 22.9813 13.9577 22.7607C14.8778 22.54 15.7357 22.1133 16.4668 21.5128C17.198 20.9123 17.7832 20.1536 18.1785 19.294C18.5737 18.4344 18.7687 17.4963 18.7486 16.5503C18.7285 15.6044 18.4939 14.6754 18.0625 13.8333L22.125 6.79167C22.2006 6.67599 22.2524 6.54641 22.2775 6.4105C22.3025 6.27458 22.3003 6.13504 22.2708 6.00001ZM5.20833 6.64584L8.8125 4.56251L12.1667 10.4167C10.7369 10.505 9.38207 11.0867 8.33333 12.0625L5.20833 6.64584ZM12.5 20.8333C11.3949 20.8333 10.3351 20.3944 9.55372 19.6129C8.77232 18.8315 8.33333 17.7717 8.33333 16.6667C8.33333 15.5616 8.77232 14.5018 9.55372 13.7204C10.3351 12.939 11.3949 12.5 12.5 12.5C13.6051 12.5 14.6649 12.939 15.4463 13.7204C16.2277 14.5018 16.6667 15.5616 16.6667 16.6667C16.6667 17.7717 16.2277 18.8315 15.4463 19.6129C14.6649 20.3944 13.6051 20.8333 12.5 20.8333ZM16.6667 12.0313C16.1011 11.5147 15.444 11.1084 14.7292 10.8333L13.7083 8.92709L16.2292 4.56251L19.8333 6.64584L16.6667 12.0313Z" fill="white"/>
</svg>
