<svg width="25" height="25" viewBox="0 0 25 25" fill="none" xmlns="http://www.w3.org/2000/svg">
<path d="M21.4688 19.9896C22.1216 19.1145 22.5696 18.1041 22.7797 17.0327C22.9898 15.9614 22.9566 14.8566 22.6827 13.7998C22.4087 12.743 21.901 11.7612 21.1969 10.9268C20.4928 10.0925 19.6103 9.42688 18.6146 8.97916C18.3977 7.73135 17.8993 6.54939 17.1571 5.52309C16.415 4.49679 15.4487 3.65315 14.3316 3.05628C13.2146 2.4594 11.9761 2.125 10.7105 2.07847C9.44482 2.03194 8.1852 2.27452 7.02733 2.78777C5.86947 3.30101 4.84383 4.07142 4.02833 5.04047C3.21284 6.00951 2.62895 7.15168 2.32104 8.3802C2.01313 9.60872 1.98929 10.8913 2.25134 12.1304C2.51338 13.3695 3.05442 14.5326 3.83334 15.5312L2.38542 16.9687C2.24088 17.1152 2.14297 17.3012 2.10404 17.5033C2.06511 17.7054 2.0869 17.9145 2.16667 18.1042C2.24482 18.2944 2.37752 18.4572 2.54807 18.5722C2.71861 18.6871 2.91935 18.749 3.12501 18.75H9.05209C9.64235 19.9944 10.573 21.0461 11.7362 21.7835C12.8994 22.5209 14.2477 22.9138 15.625 22.9167H21.875C22.0807 22.9156 22.2814 22.8538 22.4519 22.7388C22.6225 22.6239 22.7552 22.4611 22.8333 22.2708C22.9131 22.0811 22.9349 21.8721 22.896 21.67C22.857 21.4679 22.7591 21.2819 22.6146 21.1354L21.4688 19.9896ZM8.33334 15.625C8.33477 15.9738 8.36263 16.322 8.41667 16.6667H5.63542L6.00001 16.3125C6.09764 16.2157 6.17513 16.1004 6.22802 15.9735C6.2809 15.8466 6.30813 15.7104 6.30813 15.5729C6.30813 15.4354 6.2809 15.2992 6.22802 15.1723C6.17513 15.0454 6.09764 14.9302 6.00001 14.8333C5.41621 14.2559 4.95339 13.568 4.6386 12.8096C4.32381 12.0512 4.16338 11.2377 4.16667 10.4167C4.16667 8.75906 4.82515 7.16935 5.99726 5.99724C7.16936 4.82514 8.75907 4.16666 10.4167 4.16666C11.7101 4.15889 12.9734 4.55665 14.0291 5.30402C15.0848 6.05139 15.8797 7.1108 16.3021 8.33333C16.0729 8.33333 15.8542 8.33333 15.625 8.33333C13.6911 8.33333 11.8365 9.10156 10.469 10.469C9.10157 11.8365 8.33334 13.6911 8.33334 15.625ZM19.3125 20.8333L19.3646 20.8854H15.625C14.4201 20.8833 13.2533 20.4634 12.3233 19.6975C11.3932 18.9315 10.7575 17.8668 10.5244 16.6847C10.2913 15.5026 10.4752 14.2763 11.0449 13.2146C11.6145 12.1529 12.5347 11.3216 13.6485 10.8622C14.7623 10.4028 16.001 10.3438 17.1535 10.6952C18.3059 11.0467 19.3009 11.7868 19.9689 12.7895C20.6369 13.7923 20.9366 14.9956 20.8169 16.1945C20.6972 17.3934 20.1655 18.5137 19.3125 19.3646C19.1162 19.5569 19.0039 19.819 19 20.0937C19.0006 20.2316 19.0285 20.3679 19.0821 20.4949C19.1358 20.6218 19.2141 20.7369 19.3125 20.8333V20.8333Z" fill="white"/>
</svg>
