<svg width="25" height="25" viewBox="0 0 25 25" fill="none" xmlns="http://www.w3.org/2000/svg">
<path d="M2.60416 9.22918L11.9792 14.6458C12.1375 14.7373 12.3171 14.7854 12.5 14.7854C12.6828 14.7854 12.8625 14.7373 13.0208 14.6458L22.3958 9.22918C22.5533 9.13829 22.6842 9.00778 22.7755 8.85062C22.8669 8.69346 22.9156 8.51513 22.9167 8.33334C22.9174 8.14979 22.8696 7.96931 22.7781 7.81016C22.6867 7.65102 22.5548 7.51887 22.3958 7.42709L13.0208 2.02084C12.8625 1.92942 12.6828 1.88129 12.5 1.88129C12.3171 1.88129 12.1375 1.92942 11.9792 2.02084L2.60416 7.42709C2.4452 7.51887 2.31331 7.65102 2.22185 7.81016C2.13039 7.96931 2.0826 8.14979 2.08333 8.33334C2.08443 8.51513 2.13308 8.69346 2.22445 8.85062C2.31582 9.00778 2.44673 9.13829 2.60416 9.22918ZM12.5 4.16668L19.7917 8.33334L12.5 12.5L5.20833 8.33334L12.5 4.16668ZM21.3542 11.6354L12.5 16.6667L3.64583 11.5938C3.52694 11.5249 3.3956 11.4802 3.25937 11.4623C3.12314 11.4444 2.98472 11.4536 2.85208 11.4895C2.71943 11.5253 2.59518 11.587 2.48649 11.671C2.37779 11.7551 2.2868 11.8598 2.21875 11.9792C2.08294 12.2184 2.04725 12.5015 2.11945 12.767C2.19166 13.0324 2.3659 13.2584 2.60416 13.3958L11.9792 18.8125C12.1375 18.9039 12.3171 18.9521 12.5 18.9521C12.6828 18.9521 12.8625 18.9039 13.0208 18.8125L22.3958 13.3958C22.6341 13.2584 22.8083 13.0324 22.8805 12.767C22.9527 12.5015 22.9171 12.2184 22.7812 11.9792C22.7132 11.8598 22.6222 11.7551 22.5135 11.671C22.4048 11.587 22.2806 11.5253 22.1479 11.4895C22.0153 11.4536 21.8768 11.4444 21.7406 11.4623C21.6044 11.4802 21.4731 11.5249 21.3542 11.5938V11.6354ZM21.3542 15.8021L12.5 20.8333L3.64583 15.7604C3.52694 15.6916 3.3956 15.6469 3.25937 15.629C3.12314 15.6111 2.98472 15.6203 2.85208 15.6561C2.71943 15.692 2.59518 15.7537 2.48649 15.8377C2.37779 15.9218 2.2868 16.0265 2.21875 16.1458C2.08294 16.385 2.04725 16.6682 2.11945 16.9336C2.19166 17.199 2.3659 17.4251 2.60416 17.5625L11.9792 22.9792C12.1375 23.0706 12.3171 23.1187 12.5 23.1187C12.6828 23.1187 12.8625 23.0706 13.0208 22.9792L22.3958 17.5625C22.6341 17.4251 22.8083 17.199 22.8805 16.9336C22.9527 16.6682 22.9171 16.385 22.7812 16.1458C22.7132 16.0265 22.6222 15.9218 22.5135 15.8377C22.4048 15.7537 22.2806 15.692 22.1479 15.6561C22.0153 15.6203 21.8768 15.6111 21.7406 15.629C21.6044 15.6469 21.4731 15.6916 21.3542 15.7604V15.8021Z" fill="white"/>
</svg>
