<svg width="25" height="25" viewBox="0 0 25 25" fill="none" xmlns="http://www.w3.org/2000/svg">
<path d="M17.7083 11.4583H16.6667C16.3904 11.4583 16.1254 11.5681 15.9301 11.7634C15.7347 11.9588 15.625 12.2237 15.625 12.5C15.625 12.7763 15.7347 13.0412 15.9301 13.2366C16.1254 13.4319 16.3904 13.5417 16.6667 13.5417H17.7083C17.9846 13.5417 18.2496 13.4319 18.4449 13.2366C18.6403 13.0412 18.75 12.7763 18.75 12.5C18.75 12.2237 18.6403 11.9588 18.4449 11.7634C18.2496 11.5681 17.9846 11.4583 17.7083 11.4583ZM17.7083 15.625H16.6667C16.3904 15.625 16.1254 15.7347 15.9301 15.9301C15.7347 16.1254 15.625 16.3904 15.625 16.6667C15.625 16.9429 15.7347 17.2079 15.9301 17.4032C16.1254 17.5986 16.3904 17.7083 16.6667 17.7083H17.7083C17.9846 17.7083 18.2496 17.5986 18.4449 17.4032C18.6403 17.2079 18.75 16.9429 18.75 16.6667C18.75 16.3904 18.6403 16.1254 18.4449 15.9301C18.2496 15.7347 17.9846 15.625 17.7083 15.625ZM11.4583 9.375H17.7083C17.9846 9.375 18.2496 9.26525 18.4449 9.0699C18.6403 8.87455 18.75 8.6096 18.75 8.33333C18.75 8.05707 18.6403 7.79211 18.4449 7.59676C18.2496 7.40141 17.9846 7.29167 17.7083 7.29167H11.4583C11.1821 7.29167 10.9171 7.40141 10.7218 7.59676C10.5264 7.79211 10.4167 8.05707 10.4167 8.33333C10.4167 8.6096 10.5264 8.87455 10.7218 9.0699C10.9171 9.26525 11.1821 9.375 11.4583 9.375V9.375ZM21.875 3.125H7.29167C7.0154 3.125 6.75045 3.23475 6.5551 3.4301C6.35975 3.62545 6.25 3.8904 6.25 4.16667V7.29167H3.125C2.84874 7.29167 2.58378 7.40141 2.38843 7.59676C2.19308 7.79211 2.08334 8.05707 2.08334 8.33333V18.75C2.08334 19.5788 2.41258 20.3737 2.99863 20.9597C3.58468 21.5458 4.37953 21.875 5.20834 21.875H18.75C19.8551 21.875 20.9149 21.436 21.6963 20.6546C22.4777 19.8732 22.9167 18.8134 22.9167 17.7083V4.16667C22.9167 3.8904 22.8069 3.62545 22.6116 3.4301C22.4162 3.23475 22.1513 3.125 21.875 3.125V3.125ZM6.25 18.75C6.25 19.0263 6.14026 19.2912 5.94491 19.4866C5.74955 19.6819 5.4846 19.7917 5.20834 19.7917C4.93207 19.7917 4.66712 19.6819 4.47177 19.4866C4.27642 19.2912 4.16667 19.0263 4.16667 18.75V9.375H6.25V18.75ZM20.8333 17.7083C20.8333 18.2609 20.6138 18.7908 20.2231 19.1815C19.8324 19.5722 19.3025 19.7917 18.75 19.7917H8.14584C8.26711 19.4576 8.33052 19.1054 8.33334 18.75V5.20833H20.8333V17.7083ZM11.4583 13.5417H12.5C12.7763 13.5417 13.0412 13.4319 13.2366 13.2366C13.4319 13.0412 13.5417 12.7763 13.5417 12.5C13.5417 12.2237 13.4319 11.9588 13.2366 11.7634C13.0412 11.5681 12.7763 11.4583 12.5 11.4583H11.4583C11.1821 11.4583 10.9171 11.5681 10.7218 11.7634C10.5264 11.9588 10.4167 12.2237 10.4167 12.5C10.4167 12.7763 10.5264 13.0412 10.7218 13.2366C10.9171 13.4319 11.1821 13.5417 11.4583 13.5417V13.5417ZM11.4583 17.7083H12.5C12.7763 17.7083 13.0412 17.5986 13.2366 17.4032C13.4319 17.2079 13.5417 16.9429 13.5417 16.6667C13.5417 16.3904 13.4319 16.1254 13.2366 15.9301C13.0412 15.7347 12.7763 15.625 12.5 15.625H11.4583C11.1821 15.625 10.9171 15.7347 10.7218 15.9301C10.5264 16.1254 10.4167 16.3904 10.4167 16.6667C10.4167 16.9429 10.5264 17.2079 10.7218 17.4032C10.9171 17.5986 11.1821 17.7083 11.4583 17.7083V17.7083Z" fill="white"/>
</svg>
